#Comment line ignore any data following # character 
#Hierarchical Translation and Rotation (.htr) file 
[Header]	
#Header keywords are followed by a single value 
FileType HTR		#Single word string
DataType HTRS		#Translation followed by rotation and scale data
FileVersion 1		#integer
NumSegments 84		#integer
NumFrames 2		#integer
DataFrameRate 30		#integer, data frame rate in this file
EulerRotationOrder ZYX
CalibrationUnits mm
RotationUnits Degrees
GlobalAxisofGravity Y
BoneLengthAxis Y
ScaleFactor 1.00
[SegmentNames&Hierarchy]
#CHILD	PARENT
MASTER GLOBAL
root MASTER
chest root
L_mid_tent01 root
R_mid_tent01 root
spine01 root
Bip01_Neck chest
L_humerus chest
R_humerus chest
weapon_bone chest
Bip01_Head Bip01_Neck
eye_left_bone Bip01_Head
eye_right_bone Bip01_Head
L_forearm L_humerus
L_front_hand L_forearm
L_weapon_bone L_forearm
L_front_hand01_01 L_front_hand
L_front_hand02_01 L_front_hand
L_front_hand03_01 L_front_hand
L_front_hand01_02 L_front_hand01_01
L_front_hand02_02 L_front_hand02_01
L_front_hand03_02 L_front_hand03_01
R_forearm R_humerus
R_front_hand R_forearm
R_weapon_bone R_forearm
R_front_hand01_01 R_front_hand
R_front_hand02_01 R_front_hand
R_front_hand03_01 R_front_hand
R_front_hand01_02 R_front_hand01_01
R_front_hand02_02 R_front_hand02_01
R_front_hand03_02 R_front_hand03_01
null_rope01_connect L_mid_tent01
Rope1_Seg01 null_rope01_connect
Rope1_Seg02 Rope1_Seg01
Rope1_Seg03 Rope1_Seg02
Rope1_Seg04 Rope1_Seg03
Rope1_Seg05 Rope1_Seg04
Rope1_Seg06 Rope1_Seg05
Rope1_Seg07 Rope1_Seg06
Rope1_Seg09 Rope1_Seg07
L_mid_hand01 Rope1_Seg09
L_mid_hand02 Rope1_Seg09
L_mid_hand03 Rope1_Seg09
null_rope02_connect R_mid_tent01
Rope2_Seg01 null_rope02_connect
Rope2_Seg02 Rope2_Seg01
Rope2_Seg03 Rope2_Seg02
Rope2_Seg04 Rope2_Seg03
Rope2_Seg05 Rope2_Seg04
Rope2_Seg06 Rope2_Seg05
Rope2_Seg07 Rope2_Seg06
Rope2_Seg09 Rope2_Seg07
R_mid_hand01 Rope2_Seg09
R_mid_hand02 Rope2_Seg09
R_mid_hand03 Rope2_Seg09
spine02 spine01
spine03 spine02
pelvis spine03
null_rope03_connect pelvis
null_rope04_connect pelvis
Rope3_Seg01 null_rope03_connect
Rope3_Seg02 Rope3_Seg01
Rope3_Seg03 Rope3_Seg02
Rope3_Seg04 Rope3_Seg03
Rope3_Seg05 Rope3_Seg04
Rope3_Seg06 Rope3_Seg05
Rope3_Seg07 Rope3_Seg06
Rope3_Seg08 Rope3_Seg07
Rope3_Seg09 Rope3_Seg08
R_rear_hand01 Rope3_Seg09
R_rear_hand02 Rope3_Seg09
R_rear_hand03 Rope3_Seg09
Rope4_Seg01 null_rope04_connect
Rope4_Seg02 Rope4_Seg01
Rope4_Seg03 Rope4_Seg02
Rope4_Seg04 Rope4_Seg03
Rope4_Seg05 Rope4_Seg04
Rope4_Seg06 Rope4_Seg05
Rope4_Seg07 Rope4_Seg06
Rope4_Seg08 Rope4_Seg07
Rope4_Seg09 Rope4_Seg08
L_rear_hand01 Rope4_Seg09
L_rear_hand02 Rope4_Seg09
L_rear_hand03 Rope4_Seg09
[BasePosition]
#SegmentName Tx, Ty, Tz, Rx, Ry, Rz, BoneLength
MASTER 0.000000 0.000000 0.000000 -90.000000 0.000000 0.000000 10.000000 
root 0.000000 0.000000 0.000000 0.000000 0.000000 0.000000 10.000000 
chest 0.000000 0.000000 0.000000 0.000000 0.000000 0.000000 10.000000 
L_mid_tent01 0.000000 0.000000 0.000000 0.000000 0.000000 0.000000 10.000000 
R_mid_tent01 0.000000 0.000000 0.000000 0.000000 0.000000 0.000000 10.000000 
spine01 0.000000 0.000000 0.000000 0.000000 0.000000 0.000000 10.000000 
Bip01_Neck 0.000000 0.000000 0.000000 0.000000 0.000000 0.000000 10.000000 
L_humerus 0.000000 0.000000 0.000000 0.000000 0.000000 0.000000 10.000000 
R_humerus 0.000000 0.000000 0.000000 0.000000 0.000000 0.000000 10.000000 
weapon_bone 0.000000 0.000000 0.000000 0.000000 0.000000 0.000000 10.000000 
Bip01_Head 0.000000 0.000000 0.000000 0.000000 0.000000 0.000000 10.000000 
eye_left_bone 0.000000 0.000000 0.000000 0.000000 0.000000 0.000000 10.000000 
eye_right_bone 0.000000 0.000000 0.000000 0.000000 0.000000 0.000000 10.000000 
L_forearm 0.000000 0.000000 0.000000 0.000000 0.000000 0.000000 10.000000 
L_front_hand 0.000000 0.000000 0.000000 0.000000 0.000000 0.000000 10.000000 
L_weapon_bone 0.000000 0.000000 0.000000 0.000000 0.000000 0.000000 10.000000 
L_front_hand01_01 0.000000 0.000000 0.000000 0.000000 0.000000 0.000000 10.000000 
L_front_hand02_01 0.000000 0.000000 0.000000 0.000000 0.000000 0.000000 10.000000 
L_front_hand03_01 0.000000 0.000000 0.000000 0.000000 0.000000 0.000000 10.000000 
L_front_hand01_02 0.000000 0.000000 0.000000 0.000000 0.000000 0.000000 10.000000 
L_front_hand02_02 0.000000 0.000000 0.000000 0.000000 0.000000 0.000000 10.000000 
L_front_hand03_02 0.000000 0.000000 0.000000 0.000000 0.000000 0.000000 10.000000 
R_forearm 0.000000 0.000000 0.000000 0.000000 0.000000 0.000000 10.000000 
R_front_hand 0.000000 0.000000 0.000000 0.000000 0.000000 0.000000 10.000000 
R_weapon_bone 0.000000 0.000000 0.000000 0.000000 0.000000 0.000000 10.000000 
R_front_hand01_01 0.000000 0.000000 0.000000 0.000000 0.000000 0.000000 10.000000 
R_front_hand02_01 0.000000 0.000000 0.000000 0.000000 0.000000 0.000000 10.000000 
R_front_hand03_01 0.000000 0.000000 0.000000 0.000000 0.000000 0.000000 10.000000 
R_front_hand01_02 0.000000 0.000000 0.000000 0.000000 0.000000 0.000000 10.000000 
R_front_hand02_02 0.000000 0.000000 0.000000 0.000000 0.000000 0.000000 10.000000 
R_front_hand03_02 0.000000 0.000000 0.000000 0.000000 0.000000 0.000000 10.000000 
null_rope01_connect 0.000000 0.000000 0.000000 0.000000 0.000000 0.000000 10.000000 
Rope1_Seg01 0.000000 0.000000 0.000000 0.000000 0.000000 0.000000 10.000000 
Rope1_Seg02 0.000000 0.000000 0.000000 0.000000 0.000000 0.000000 10.000000 
Rope1_Seg03 0.000000 0.000000 0.000000 0.000000 0.000000 0.000000 10.000000 
Rope1_Seg04 0.000000 0.000000 0.000000 0.000000 0.000000 0.000000 10.000000 
Rope1_Seg05 0.000000 0.000000 0.000000 0.000000 0.000000 0.000000 10.000000 
Rope1_Seg06 0.000000 0.000000 0.000000 0.000000 0.000000 0.000000 10.000000 
Rope1_Seg07 0.000000 0.000000 0.000000 0.000000 0.000000 0.000000 10.000000 
Rope1_Seg09 0.000000 0.000000 0.000000 0.000000 0.000000 0.000000 10.000000 
L_mid_hand01 0.000000 0.000000 0.000000 0.000000 0.000000 0.000000 10.000000 
L_mid_hand02 0.000000 0.000000 0.000000 0.000000 0.000000 0.000000 10.000000 
L_mid_hand03 0.000000 0.000000 0.000000 0.000000 0.000000 0.000000 10.000000 
null_rope02_connect 0.000000 0.000000 0.000000 0.000000 0.000000 0.000000 10.000000 
Rope2_Seg01 0.000000 0.000000 0.000000 0.000000 0.000000 0.000000 10.000000 
Rope2_Seg02 0.000000 0.000000 0.000000 0.000000 0.000000 0.000000 10.000000 
Rope2_Seg03 0.000000 0.000000 0.000000 0.000000 0.000000 0.000000 10.000000 
Rope2_Seg04 0.000000 0.000000 0.000000 0.000000 0.000000 0.000000 10.000000 
Rope2_Seg05 0.000000 0.000000 0.000000 0.000000 0.000000 0.000000 10.000000 
Rope2_Seg06 0.000000 0.000000 0.000000 0.000000 0.000000 0.000000 10.000000 
Rope2_Seg07 0.000000 0.000000 0.000000 0.000000 0.000000 0.000000 10.000000 
Rope2_Seg09 0.000000 0.000000 0.000000 0.000000 0.000000 0.000000 10.000000 
R_mid_hand01 0.000000 0.000000 0.000000 0.000000 0.000000 0.000000 10.000000 
R_mid_hand02 0.000000 0.000000 0.000000 0.000000 0.000000 0.000000 10.000000 
R_mid_hand03 0.000000 0.000000 0.000000 0.000000 0.000000 0.000000 10.000000 
spine02 0.000000 0.000000 0.000000 0.000000 0.000000 0.000000 10.000000 
spine03 0.000000 0.000000 0.000000 0.000000 0.000000 0.000000 10.000000 
pelvis 0.000000 0.000000 0.000000 0.000000 0.000000 0.000000 10.000000 
null_rope03_connect 0.000000 0.000000 0.000000 0.000000 0.000000 0.000000 10.000000 
null_rope04_connect 0.000000 0.000000 0.000000 0.000000 0.000000 0.000000 10.000000 
Rope3_Seg01 0.000000 0.000000 0.000000 0.000000 0.000000 0.000000 10.000000 
Rope3_Seg02 0.000000 0.000000 0.000000 0.000000 0.000000 0.000000 10.000000 
Rope3_Seg03 0.000000 0.000000 0.000000 0.000000 0.000000 0.000000 10.000000 
Rope3_Seg04 0.000000 0.000000 0.000000 0.000000 0.000000 0.000000 10.000000 
Rope3_Seg05 0.000000 0.000000 0.000000 0.000000 0.000000 0.000000 10.000000 
Rope3_Seg06 0.000000 0.000000 0.000000 0.000000 0.000000 0.000000 10.000000 
Rope3_Seg07 0.000000 0.000000 0.000000 0.000000 0.000000 0.000000 10.000000 
Rope3_Seg08 0.000000 0.000000 0.000000 0.000000 0.000000 0.000000 10.000000 
Rope3_Seg09 0.000000 0.000000 0.000000 0.000000 0.000000 0.000000 10.000000 
R_rear_hand01 0.000000 0.000000 0.000000 0.000000 0.000000 0.000000 10.000000 
R_rear_hand02 0.000000 0.000000 0.000000 0.000000 0.000000 0.000000 10.000000 
R_rear_hand03 0.000000 0.000000 0.000000 0.000000 0.000000 0.000000 10.000000 
Rope4_Seg01 0.000000 0.000000 0.000000 0.000000 0.000000 0.000000 10.000000 
Rope4_Seg02 0.000000 0.000000 0.000000 0.000000 0.000000 0.000000 10.000000 
Rope4_Seg03 0.000000 0.000000 0.000000 0.000000 0.000000 0.000000 10.000000 
Rope4_Seg04 0.000000 0.000000 0.000000 0.000000 0.000000 0.000000 10.000000 
Rope4_Seg05 0.000000 0.000000 0.000000 0.000000 0.000000 0.000000 10.000000 
Rope4_Seg06 0.000000 0.000000 0.000000 0.000000 0.000000 0.000000 10.000000 
Rope4_Seg07 0.000000 0.000000 0.000000 0.000000 0.000000 0.000000 10.000000 
Rope4_Seg08 0.000000 0.000000 0.000000 0.000000 0.000000 0.000000 10.000000 
Rope4_Seg09 0.000000 0.000000 0.000000 0.000000 0.000000 0.000000 10.000000 
L_rear_hand01 0.000000 0.000000 0.000000 0.000000 0.000000 0.000000 10.000000 
L_rear_hand02 0.000000 0.000000 0.000000 0.000000 0.000000 0.000000 10.000000 
L_rear_hand03 0.000000 0.000000 0.000000 0.000000 0.000000 0.000000 10.000000 
#Beginning of Data. Separated by tabs
#Fr	Tx	Ty	Tz	Rx	Ry	Rz	SF
[MASTER]
16 0.000000 0.000000 0.000000 0.001660 0.001660 0.001660 0.000000
17 0.000000 0.000000 0.000000 0.001660 0.001660 0.001660 0.000000
[root]
16 -49.130394 -62.822117 561.490784 -85.063545 -3.129171 -90.919090 567.126343
17 -31.150581 -62.822117 548.260803 -85.176476 -3.503413 -90.856956 552.726746
[chest]
16 -77.966583 31.838417 -48.345608 1.004562 -1.247387 161.667969 97.107002
17 -78.371468 27.760601 -45.355350 1.495834 -1.914122 159.136551 94.709267
[L_mid_tent01]
16 27.156385 22.259531 -248.998489 0.224799 18.374683 95.931839 251.462128
17 27.190290 22.240110 -249.216370 -0.724407 19.726280 95.135422 251.679810
[R_mid_tent01]
16 23.228794 24.509907 226.238495 156.588821 -16.129745 113.716980 228.744751
17 23.228794 24.509907 226.238495 153.642624 -17.516140 111.035461 228.744751
[spine01]
16 -0.361383 -0.195265 0.000000 -0.000001 -0.000007 22.052340 0.410763
17 -0.361383 -0.195265 0.000000 -0.000001 -0.000007 22.052340 0.410763
[Bip01_Neck]
16 165.484543 71.581718 0.000119 175.896118 1.177290 24.871183 180.302734
17 165.484543 71.581718 0.000119 175.896118 1.177290 24.871183 180.302734
[L_humerus]
16 -13.983130 -135.272980 -120.471481 -3.791939 5.587435 -82.567276 181.680161
17 -13.983130 -135.272980 -120.471481 -9.306085 5.608653 -65.676231 181.680161
[R_humerus]
16 -13.983309 -135.273102 125.287651 2.653309 -10.393683 -77.502510 184.909012
17 -13.983309 -135.273102 125.287651 7.935685 -6.991338 -60.163666 184.909012
[weapon_bone]
16 235.964890 -300.705902 0.000000 0.000000 -89.951546 -128.212341 382.234833
17 235.964890 -300.705902 0.000000 0.000000 -89.951546 -128.212341 382.234833
[Bip01_Head]
16 174.703018 138.670578 4.067011 6.284671 -0.384789 -28.663723 223.085663
17 174.883240 142.881119 3.774424 6.695336 0.368095 -29.072058 225.861481
[eye_left_bone]
16 -24.626970 125.451866 -64.772606 0.000000 -90.000000 -99.840431 143.318359
17 -24.626970 125.451866 -64.772606 0.000000 -90.000000 -99.840431 143.318359
[eye_right_bone]
16 -24.626970 125.451866 64.327362 0.000000 -89.960434 80.159386 143.117676
17 -24.626970 125.451866 64.327362 0.000000 -89.960434 80.159386 143.117676
[L_forearm]
16 322.776093 0.000000 -0.000119 0.001095 -0.002076 -145.625320 322.776093
17 322.776093 0.000000 -0.000119 0.001009 -0.002119 -140.914154 322.776093
[L_front_hand]
16 241.149185 -0.042021 -3.300071 -174.009995 -2.905426 -5.145635 241.171753
17 241.149185 -0.042021 -3.300071 -176.617188 -2.726163 -1.246898 241.171753
[L_weapon_bone]
16 156.183838 0.000000 0.000000 0.000014 0.000007 0.000001 156.183838
17 156.183838 0.000000 0.000000 0.000014 0.000007 0.000001 156.183838
[L_front_hand01_01]
16 86.095154 20.947098 -0.655860 0.405508 -0.442376 -4.600690 88.609184
17 86.095154 20.947098 -0.655860 0.405585 -0.442306 -4.620490 88.609184
[L_front_hand02_01]
16 86.935165 -11.437475 24.513514 116.959366 3.611215 1.487144 91.046425
17 86.935165 -11.437475 24.513514 116.959450 3.630817 1.495453 91.046425
[L_front_hand03_01]
16 86.637497 -14.123976 -20.424902 -118.420197 -4.649519 -0.154241 90.126129
17 86.637497 -14.123976 -20.424902 -118.420097 -4.656303 -0.152527 90.126129
[L_front_hand01_02]
16 71.020905 -0.000179 0.000030 0.001534 0.001777 -8.378850 71.020905
17 71.020905 -0.000179 0.000030 0.001534 0.001777 -8.378850 71.020905
[L_front_hand02_02]
16 71.020927 -0.000119 0.000060 0.001534 0.001777 -8.378850 71.020927
17 71.020927 -0.000119 0.000060 0.001534 0.001777 -8.378850 71.020927
[L_front_hand03_02]
16 71.020905 -0.000060 0.000060 0.001534 0.001777 -8.378850 71.020905
17 71.020905 -0.000060 0.000060 0.001534 0.001777 -8.378850 71.020905
[R_forearm]
16 322.776428 -0.000060 0.000030 0.122959 0.172273 -145.278076 322.776428
17 322.776428 -0.000060 0.000030 0.145547 0.154355 -138.130661 322.776428
[R_front_hand]
16 238.847015 -0.006795 2.210259 -6.505796 2.916228 -8.401903 238.857239
17 238.847015 -0.006795 2.210259 -3.671502 2.490243 -4.083042 238.857239
[R_weapon_bone]
16 155.664093 0.002503 -0.000030 0.003487 0.001180 -90.988930 155.664078
17 155.664093 0.002503 -0.000030 0.003487 0.001180 -90.988930 155.664078
[R_front_hand01_01]
16 87.624611 14.231146 22.918642 -116.960144 3.487283 -1.318284 91.683487
17 87.624611 14.231146 22.918642 -116.960213 3.496675 -1.324139 91.683487
[R_front_hand02_01]
16 89.356956 14.367283 -19.491137 118.419647 -4.247772 0.615794 92.579636
17 89.356956 14.367283 -19.491137 118.419647 -4.257089 0.609827 92.579636
[R_front_hand03_01]
16 87.286232 -22.307278 -0.143439 -0.387950 -0.231495 4.222104 90.091743
17 87.286232 -22.307278 -0.143439 -0.387970 -0.231462 4.232001 90.091743
[R_front_hand01_02]
16 71.020905 0.000060 0.000119 0.001777 0.001534 8.377220 71.020905
17 71.020905 0.000060 0.000119 0.001777 0.001534 8.377220 71.020905
[R_front_hand02_02]
16 71.020844 -0.000030 -0.000119 0.001777 0.001534 8.377220 71.020836
17 71.020844 -0.000030 -0.000119 0.001777 0.001534 8.377220 71.020836
[R_front_hand03_02]
16 71.020905 0.000000 0.000030 0.001777 0.001534 8.377220 71.020905
17 71.020905 0.000000 0.000030 0.001777 0.001534 8.377220 71.020905
[null_rope01_connect]
16 328.732483 0.000000 -0.000238 179.883057 -76.567047 177.311340 328.732483
17 328.732483 0.000000 -0.000238 177.174469 -75.102043 -178.940353 328.732483
[Rope1_Seg01]
16 -0.000029 0.000019 0.000076 132.740097 -37.198627 122.715210 0.000084
17 -0.000028 0.000018 0.000071 131.497284 -35.616123 122.941170 0.000079
[Rope1_Seg02]
16 139.999863 -0.000179 0.000000 -2.713496 -3.398338 -1.897627 139.999863
17 139.999863 -0.000179 0.000000 -2.387513 -2.993373 -1.737261 139.999863
[Rope1_Seg03]
16 139.999924 0.000060 -0.000060 -4.230614 -5.001923 -3.128006 139.999924
17 139.999924 0.000060 -0.000060 -3.655390 -4.364757 -2.785814 139.999924
[Rope1_Seg04]
16 139.999924 -0.000060 -0.000119 -7.341701 -8.265059 -5.919967 139.999924
17 139.999924 -0.000060 -0.000119 -6.202103 -7.058445 -5.140656 139.999924
[Rope1_Seg05]
16 139.999832 0.000119 -0.000060 -14.336614 -17.037804 -12.260186 139.999832
17 139.999832 0.000119 -0.000060 -13.004470 -15.733423 -10.426322 139.999832
[Rope1_Seg06]
16 139.999954 0.000119 -0.000060 -10.669177 -8.553251 -27.122942 139.999954
17 139.999954 0.000119 -0.000060 -11.611209 -10.928843 -26.469625 139.999954
[Rope1_Seg07]
16 139.999985 0.000060 0.000000 -3.648932 8.300216 -42.037643 139.999985
17 139.999985 0.000060 0.000000 -4.149890 7.518915 -44.050159 139.999985
[Rope1_Seg09]
16 121.602913 0.000119 -0.000089 -89.793175 -1.359789 0.847147 121.602913
17 121.602913 0.000119 -0.000089 -89.793175 -1.359789 0.847147 121.602913
[L_mid_hand01]
16 103.859421 1.038730 8.195221 106.104088 -26.654175 -7.911051 104.187431
17 103.859421 1.038730 8.195221 106.133423 -26.845863 -7.973952 104.187431
[L_mid_hand02]
16 105.572853 -4.139662 -10.864139 -140.647324 22.773211 -24.675550 106.211075
17 105.572853 -4.139662 -10.864139 -140.709091 22.900658 -24.837858 106.211075
[L_mid_hand03]
16 104.641464 17.579376 -3.913581 -16.853828 8.378538 29.581190 106.179977
17 104.641464 17.579376 -3.913581 -16.822571 8.433832 29.777969 106.179977
[null_rope02_connect]
16 328.732849 0.000179 -0.000119 -148.924652 58.096645 47.380009 328.732849
17 328.732849 0.000179 -0.000119 -144.069061 55.286125 48.275482 328.732849
[Rope2_Seg01]
16 0.000010 -0.000014 0.000000 -68.306854 -44.068565 71.663681 0.000017
17 0.000004 -0.000023 0.000000 -68.090698 -44.749420 70.821365 0.000023
[Rope2_Seg02]
16 139.999741 -0.000060 -0.000119 4.288931 4.938641 5.831308 139.999756
17 139.999741 -0.000060 -0.000119 4.816732 5.179679 6.858267 139.999756
[Rope2_Seg03]
16 140.000107 0.000030 0.000000 6.137455 8.647676 8.927482 140.000107
17 140.000107 0.000030 0.000000 6.733225 8.942520 10.170687 140.000107
[Rope2_Seg04]
16 139.999802 0.000000 -0.000060 7.932351 16.474407 13.714458 139.999802
17 139.999802 0.000000 -0.000060 7.930774 15.859902 14.074187 139.999802
[Rope2_Seg05]
16 139.999985 -0.000060 0.000119 3.843509 18.459351 12.095998 139.999985
17 139.999985 -0.000060 0.000119 3.510412 15.088624 10.797486 139.999985
[Rope2_Seg06]
16 139.999893 -0.000030 -0.000119 0.196708 16.221079 13.343114 139.999893
17 139.999893 -0.000030 -0.000119 1.466295 16.283640 15.047359 139.999893
[Rope2_Seg07]
16 139.999893 0.000060 -0.000060 -3.562169 28.839897 32.312370 139.999893
17 139.999893 0.000060 -0.000060 -0.404721 31.360418 37.173752 139.999893
[Rope2_Seg09]
16 121.338966 0.000089 -0.000060 33.793236 -1.359788 -0.847141 121.338966
17 121.338966 0.000089 -0.000060 33.793236 -1.359788 -0.847141 121.338966
[R_mid_hand01]
16 104.680779 11.144459 -10.335981 -40.409283 27.372576 31.097591 105.778534
17 104.680779 11.144459 -10.335981 -41.711292 25.075665 28.157986 105.778534
[R_mid_hand02]
16 104.070427 2.443552 8.231699 72.243439 -35.578480 11.089156 104.424065
17 104.070427 2.443552 8.231699 72.946106 -32.243050 9.832195 104.424065
[R_mid_hand03]
16 106.028137 -11.221827 -5.996406 -168.442261 10.867117 -39.968899 106.788818
17 106.028137 -11.221827 -5.996406 -167.807098 10.146728 -36.485764 106.788818
[spine02]
16 129.756927 0.001550 0.000119 -0.195610 -4.216116 -5.134921 129.756927
17 129.756927 0.001550 0.000119 -0.207931 -4.191316 -4.963569 129.756927
[spine03]
16 78.633560 0.083806 -4.706032 0.306524 5.483763 -6.260185 78.774300
17 78.631371 0.084185 -4.727451 0.321791 5.272597 -6.016583 78.773399
[pelvis]
16 169.435242 0.051022 0.000000 0.027370 1.169455 -1.842975 169.435257
17 169.435242 0.051022 0.000000 0.021499 0.991237 -1.709490 169.435257
[null_rope03_connect]
16 -1.257226 -2.466202 137.391083 -31.045900 -83.888069 115.292175 137.418976
17 -1.257226 -2.466202 137.391083 -27.653744 -84.198761 111.720322 137.418976
[null_rope04_connect]
16 -1.259640 -2.480268 -137.844437 -31.045900 -83.888069 115.292175 137.872513
17 -1.259640 -2.480268 -137.844437 -27.653744 -84.198761 111.720322 137.872513
[Rope3_Seg01]
16 0.000000 0.000000 0.000000 -144.921432 -32.969154 -54.663551 0.000000
17 0.000000 0.000000 0.000000 -144.732605 -36.333996 -58.030075 0.000000
[Rope3_Seg02]
16 139.999924 -0.000119 0.000060 6.588442 -11.780072 7.375676 139.999924
17 139.999924 -0.000119 0.000060 5.891251 -11.998705 7.086002 139.999924
[Rope3_Seg03]
16 139.999924 -0.000119 0.000119 7.406461 -14.198080 11.477729 139.999924
17 139.999924 -0.000119 0.000119 7.047180 -15.464009 11.680133 139.999924
[Rope3_Seg04]
16 139.999924 0.000119 0.000000 5.507058 -11.974539 10.753252 139.999924
17 139.999924 0.000119 0.000000 5.504111 -13.831179 11.772129 139.999924
[Rope3_Seg05]
16 139.999924 -0.000238 0.000060 3.477006 -7.484880 13.507438 139.999924
17 139.999924 -0.000238 0.000060 3.230251 -8.259311 13.242427 139.999924
[Rope3_Seg06]
16 139.999893 -0.000119 -0.000060 0.349355 -7.352276 26.277573 139.999893
17 139.999893 -0.000119 -0.000060 0.181347 -8.166417 25.038679 139.999893
[Rope3_Seg07]
16 139.999771 0.000060 -0.000119 -4.438569 -5.966112 22.168728 139.999771
17 139.999771 0.000060 -0.000119 -4.641953 -7.037897 22.549541 139.999771
[Rope3_Seg08]
16 139.999985 -0.000060 0.000000 -3.601281 -3.761017 10.555786 139.999985
17 139.999985 -0.000060 0.000000 -3.699304 -4.358594 10.734705 139.999985
[Rope3_Seg09]
16 90.185997 -0.000179 -0.000060 89.793228 -1.359877 -0.847183 90.185997
17 90.185997 -0.000179 -0.000060 89.793228 -1.359877 -0.847183 90.185997
[R_rear_hand01]
16 103.366196 -6.073594 -10.757982 -161.551193 16.666374 -30.088671 104.101845
17 103.366196 -6.073594 -10.757982 -161.551193 16.666374 -30.088671 104.101845
[R_rear_hand02]
16 100.509819 12.039542 -7.992327 -34.280552 19.289745 28.875523 101.543350
17 100.509819 12.039542 -7.992327 -34.280552 19.289745 28.875523 101.543350
[R_rear_hand03]
16 101.539970 5.215704 5.435467 83.366440 -30.933914 7.284830 101.819031
17 101.539970 5.215704 5.435467 83.366440 -30.933914 7.284830 101.819031
[Rope4_Seg01]
16 -0.000005 -0.000076 -0.000057 81.972946 -45.422153 -143.168640 0.000095
17 -0.000006 -0.000074 -0.000061 84.929420 -45.702576 -146.118805 0.000096
[Rope4_Seg02]
16 139.999985 0.000060 0.000119 -14.700568 10.779160 -14.705107 139.999985
17 139.999985 0.000060 0.000119 -13.053650 8.767084 -12.284273 139.999985
[Rope4_Seg03]
16 139.999924 0.000000 -0.000238 -15.727146 20.934719 -17.773390 139.999924
17 139.999924 0.000000 -0.000238 -16.834976 18.717888 -17.471846 139.999924
[Rope4_Seg04]
16 139.999985 0.000000 0.000119 -4.991455 20.828962 -7.982246 139.999985
17 139.999985 0.000000 0.000119 -8.004719 25.520632 -10.737937 139.999985
[Rope4_Seg05]
16 139.999802 -0.000060 -0.000119 -0.887279 10.924533 -7.152716 139.999802
17 139.999802 -0.000060 -0.000119 -0.985193 12.683390 -6.540602 139.999802
[Rope4_Seg06]
16 139.999924 0.000000 0.000060 -0.555445 15.559546 -18.831753 139.999924
17 139.999924 0.000000 0.000060 0.072885 12.866896 -14.908538 139.999924
[Rope4_Seg07]
16 139.999802 0.000000 0.000000 1.501465 18.979401 -24.383408 139.999802
17 139.999802 0.000000 0.000000 1.329849 18.352043 -24.919939 139.999802
[Rope4_Seg08]
16 139.999924 0.000000 0.000119 1.363363 9.059958 -12.433285 139.999924
17 139.999924 0.000000 0.000119 1.358309 10.221550 -13.960435 139.999924
[Rope4_Seg09]
16 90.185791 0.000060 0.000060 -135.617828 2.228885 0.850567 90.185791
17 90.185791 0.000060 0.000060 -135.617828 2.228885 0.850567 90.185791
[L_rear_hand01]
16 101.696655 -8.392275 -7.654577 -35.091927 -17.604450 153.690674 102.329041
17 101.696655 -8.392275 -7.654577 -35.092175 -17.604303 153.690643 102.329041
[L_rear_hand02]
16 102.726799 -1.568258 5.773216 83.559189 27.992411 173.103073 102.900848
17 102.726799 -1.568258 5.773216 83.559128 27.992247 173.102905 102.900848
[L_rear_hand03]
16 104.552910 9.721220 -10.420293 -160.739212 -15.709999 -152.829666 105.519653
17 104.552910 9.721220 -10.420293 -160.739182 -15.709963 -152.829880 105.519653
